ply
format ascii 1.0
comment written by Leonel Ocsa Sanchez
element vertex 31
property float32 x
property float32 y
property float32 z
property uchar red
property uchar green
property uchar blue
end_header

0.453408 1.51071 0.00123624 90 95 68
0.211648 2.96942 0.00723268 244 239 184
0.886854 2.28761 -0.00129188 199 176 98
0.202861 2.51829 0.00757409 171 170 112
0.831322 2.25997 -0.00134227 222 198 116
0.940413 2.41486 -0.000704102 236 222 150
0.213621 3.19893 0.00712745 130 131 99
0.20103 2.6507 0.00755102 218 215 147
0.25004 3.11505 0.00672294 145 138 88
0.333362 3.92295 0.00542422 166 167 128
0.309958 2.92044 0.00613285 15 18 63
0.307271 2.84966 0.006182 220 226 167
0.600322 3.99599 0.00292306 200 206 135
0.635916 4.11982 0.00265397 162 163 131
0.363274 2.26149 0.00511221 12 22 52
0.744234 2.28745 -0.000896246 93 84 46
0.254711 2.42949 0.00687872 129 146 89
0.677445 5.82685 0.00203472 33 32 36
0.677445 5.82685 0.00203472 33 32 36
0.304382 2.55312 0.00620356 171 170 112
0.749415 6.14944 0.00153014 14 9 6
0.289023 2.26866 0.00635489 111 118 97
0.567589 2.33345 0.00167149 93 120 76
0.572639 2.16012 0.001143 157 169 111
0.60014 2.15073 0.000648241 157 163 104
0.337179 3.13561 0.0057598 21 27 74
0.544307 2.15942 0.00163839 175 185 125
0.669227 2.20995 -0.000237069 198 199 133
0.342684 2.25841 0.00544193 122 140 87
0.643603 2.17369 2.34674e-05 194 188 123
0.713225 2.18583 -0.000855859 136 111 67
