ply
format ascii 1.0
comment written by Leonel Ocsa Sanchez
element vertex 22
property float32 x
property float32 y
property float32 z
property uchar red
property uchar green
property uchar blue
end_header

-0.400398 0.381344 0.000196356 144 109 95
-0.388665 0.338308 6.03261e-05 96 85 181
-0.387796 0.332042 3.36683e-05 93 104 188
-0.427658 0.512879 0.000645126 213 198 229
-0.413155 0.441794 0.000440655 121 124 179
-0.396371 0.362375 0.000121576 113 118 211
-0.391707 0.338804 1.26801e-05 140 130 177
-0.395606 0.357032 7.53127e-05 59 59 165
-0.405653 0.404146 0.000231667 89 87 153
-0.3903 0.333771 1.29243e-05 174 137 117
-0.404989 0.40242 0.000261495 158 130 106
-0.403972 0.396488 0.000214478 149 125 107
-0.389864 0.332393 1.15867e-05 137 120 101
-0.590125 1.28996 0.00260789 77 81 169
-0.392676 0.342481 1.38727e-05 159 162 183
-0.389397 0.326503 3.96166e-05 60 59 153
-6.34238 29.1816 0.0757206 197 188 228
-0.403619 0.395651 0.000229236 77 74 184
-2.11985 8.68013 0.0205746 101 115 204
-0.506831 0.882924 0.00131154 105 116 208
-0.438753 0.558343 0.000549139 110 91 164
-0.442099 0.580804 0.00101485 125 131 198
