ply
format ascii 1.0
comment written by Leonel Ocsa Sanchez
element vertex 31
property float32 x
property float32 y
property float32 z
property uchar red
property uchar green
property uchar blue
end_header

1.67221 2.55756 11.4564 108 106 106
0.118384 1.9485 3.90647 22 13 10
-0.705869 1.62598 0.566081 15 13 12
-0.613509 1.66172 0.761534 162 166 155
2.10894 2.72209 5.32006 76 83 80
0.694591 2.1777 9.3289 90 95 104
0.0261577 1.91279 3.11547 186 194 177
-0.246145 1.80773 2.53554 255 252 245
0.15573 1.97072 9.16993 73 63 69
-0.253077 1.80283 2.3228 86 98 92
1.57873 2.5405 11.3172 103 107 118
-0.0267438 1.89497 7.34275 53 51 57
0.219862 1.99022 5.41166 99 120 121
0.219862 1.99022 5.41166 99 120 121
0.137954 1.95626 5.22986 68 95 91
0.282133 2.00405 2.50203 74 80 69
0.331542 2.02418 2.9342 61 59 29
-0.435847 1.73643 3.57681 37 44 47
0.352473 2.0351 3.73054 46 37 4
-0.517791 1.70398 2.12186 24 18 13
0.564199 2.119 4.40476 82 60 48
0.0436192 1.91175 1.47319 93 96 94
0.32998 2.02925 4.62601 124 125 121
0.730108 2.18123 2.65017 39 34 36
0.429664 2.06397 3.29757 1 11 5
-0.000218264 1.90268 4.59197 21 29 142
0.40552 2.06008 4.93975 92 82 72
0.333338 2.03079 4.71168 45 33 31
0.337354 2.03091 4.05973 91 95 90
0.337354 2.03091 4.05973 91 95 90
-0.406291 1.74532 2.91312 22 17 8
