ply
format ascii 1.0
comment written by Leonel Ocsa Sanchez
element vertex 27
property float32 x
property float32 y
property float32 z
property uchar red
property uchar green
property uchar blue
end_header

0.469215 1.16481 -0.00183392 134 110 86
0.456622 1.16747 -0.00195364 100 78 60
0.236833 1.5024 -0.00285725 125 125 139
0.278706 1.13688 -0.00356493 44 40 65
0.41105 1.19391 -0.00234243 50 28 33
0.540863 1.53537 -0.00156811 34 19 234
0.265673 1.49047 -0.00281096 155 155 155
0.303049 1.47234 -0.00270206 163 164 192
0.545947 1.43766 -0.00144617 41 33 26
0.665614 1.11679 -0.000186544 77 65 53
0.695619 1.1543 -0.000108967 116 97 76
0.610993 1.17962 -0.000673808 248 247 233
0.694862 1.12596 -3.87013e-05 154 143 123
0.217559 1.36811 -0.00306976 121 118 113
0.230056 1.38528 -0.00302594 19 25 98
0.227442 1.34084 -0.00309919 18 19 107
0.268495 1.45748 -0.00281908 13 21 128
0.317087 1.50365 -0.00262678 5 7 162
0.299164 1.23333 -0.00306037 4 11 122
0.299164 1.23333 -0.00306037 4 11 122
0.233824 1.2385 -0.00336817 94 90 96
0.703992 1.15771 -7.39695e-05 247 236 222
0.345671 1.59141 -0.00249538 13 16 161
0.573866 1.11686 -0.000835805 251 244 229
0.204575 1.41833 -0.0030996 129 117 111
0.2459 1.36345 -0.00300159 10 22 123
0.522517 1.46013 -0.00159919 28 21 18
